<?xml version="1.0" standalone="no"?>
<!DOCTYPE svg PUBLIC "-//W3C//DTD SVG 20010904//EN"
 "http://www.w3.org/TR/2001/REC-SVG-20010904/DTD/svg10.dtd">
<svg version="1.0" xmlns="http://www.w3.org/2000/svg"
 width="512.000000pt" height="512.000000pt" viewBox="0 0 512.000000 512.000000"
 preserveAspectRatio="xMidYMid meet">

<g transform="translate(0.000000,512.000000) scale(0.100000,-0.100000)"
fill="#000000" stroke="none">
<path d="M2320 4303 c-618 -42 -1163 -211 -1589 -493 -410 -271 -659 -616
-718 -995 -20 -132 -12 -401 15 -530 53 -247 172 -476 356 -688 72 -83 245
-230 362 -308 448 -299 1015 -457 1704 -476 761 -20 1436 146 1926 476 387
260 630 598 716 996 28 132 35 408 14 539 -50 303 -220 584 -498 821 -500 428
-1261 671 -2073 663 -93 -1 -190 -3 -215 -5z m560 -103 c554 -49 1073 -214
1445 -460 l110 -73 -30 -13 c-57 -25 -240 -82 -315 -99 -101 -22 -365 -31
-470 -16 -114 17 -253 59 -395 119 -225 94 -331 121 -510 129 -223 9 -406 -37
-572 -146 -78 -51 -95 -59 -153 -64 -36 -3 -128 -23 -205 -43 -124 -34 -153
-38 -255 -38 -104 1 -133 5 -297 48 -197 50 -493 143 -493 155 0 14 188 124
325 191 350 170 747 273 1210 313 94 8 499 6 605 -3z m22 -535 c60 -13 147
-40 195 -60 272 -112 377 -144 543 -165 245 -30 512 10 772 114 l112 45 99
-97 c118 -116 207 -232 270 -350 46 -88 107 -253 107 -291 0 -20 -13 -26 -105
-47 -221 -49 -565 -158 -809 -255 -82 -33 -155 -58 -162 -55 -6 2 -108 87
-225 188 -322 277 -639 540 -731 609 -184 137 -308 158 -472 81 -34 -16 -131
-81 -216 -146 -204 -154 -251 -177 -358 -177 -81 0 -159 22 -176 50 -7 11 200
239 312 342 241 221 504 288 844 214z m-2180 -64 c92 -36 295 -102 418 -135
300 -81 431 -87 644 -31 76 20 140 35 141 33 2 -2 -55 -66 -127 -143 -72 -77
-137 -155 -145 -172 -36 -88 72 -171 243 -188 82 -8 174 11 241 51 24 13 102
69 175 124 73 55 166 117 207 137 68 35 81 38 155 38 70 0 89 -4 140 -30 67
-34 225 -159 561 -444 421 -357 523 -446 540 -475 22 -36 24 -95 5 -131 -23
-42 -88 -75 -149 -75 -29 0 -62 5 -74 11 -11 7 -84 68 -161 138 -225 201 -252
223 -277 219 -12 -2 -24 -9 -27 -16 -2 -8 77 -96 181 -200 101 -103 190 -197
196 -209 41 -80 -41 -186 -156 -199 -69 -9 -92 6 -249 155 -149 142 -175 161
-198 141 -21 -17 -13 -29 101 -157 161 -177 163 -181 163 -217 0 -65 -67 -116
-150 -116 -57 0 -70 9 -194 128 -60 57 -120 109 -132 114 -26 12 -54 5 -54
-15 0 -7 49 -66 110 -132 60 -66 109 -125 110 -131 0 -23 -73 -48 -135 -48
-80 1 -182 41 -177 69 23 136 7 222 -55 295 -43 50 -140 100 -194 100 l-37 0
-4 58 c-11 155 -137 255 -302 238 -59 -6 -62 -5 -80 22 -62 92 -228 131 -340
79 l-49 -23 -26 24 c-42 40 -100 62 -166 62 -59 0 -135 -25 -149 -49 -12 -18
-29 -13 -109 33 -156 89 -441 188 -781 271 -101 24 -195 49 -209 54 l-25 10
14 55 c34 131 107 274 211 412 52 71 276 294 293 294 5 0 42 -13 82 -29z
m-505 -866 c439 -103 696 -188 875 -288 l66 -37 -5 -77 c-6 -90 6 -128 57
-187 47 -53 103 -79 172 -80 57 -1 58 -2 69 -36 35 -109 148 -190 264 -190 58
0 61 -1 79 -34 39 -73 166 -134 256 -123 47 6 50 5 69 -26 55 -89 147 -141
251 -141 69 0 145 27 186 65 20 19 24 19 50 6 54 -28 166 -57 218 -57 75 0
154 26 191 63 30 31 35 32 99 29 56 -3 76 0 121 22 58 29 121 92 137 137 9 27
14 29 61 29 29 0 68 5 88 10 47 13 125 70 153 111 23 33 28 47 40 100 5 24 11
27 69 31 70 6 147 40 189 85 56 59 74 156 43 230 -9 20 -12 40 -8 44 43 39
793 274 971 304 l42 7 0 -87 c0 -390 -254 -783 -690 -1067 -897 -586 -2347
-637 -3340 -117 -491 257 -805 625 -875 1028 -14 75 -21 271 -11 271 2 0 53
-11 113 -25z m1254 -297 c40 -22 79 -84 79 -126 0 -17 9 -12 53 31 70 71 134
90 219 67 51 -14 96 -62 109 -116 6 -24 15 -47 20 -50 5 -3 23 6 39 20 39 32
92 42 148 27 61 -16 90 -38 114 -85 21 -40 21 -91 2 -195 l-7 -34 39 8 c22 5
64 9 96 9 185 2 257 -247 101 -354 -71 -49 -184 -41 -245 16 -36 34 -67 97
-68 136 0 40 -14 42 -66 8 -59 -37 -94 -38 -162 -4 -59 29 -92 75 -92 127 0
20 -4 38 -9 42 -5 3 -28 -4 -51 -16 -31 -16 -53 -20 -90 -17 -101 10 -170 91
-170 201 0 31 -4 58 -8 61 -5 3 -31 -6 -58 -20 -59 -31 -111 -27 -162 13 -87
66 -80 193 14 249 49 30 104 31 155 2z"/>
</g>
</svg>
